<?xml version="1.0" encoding="UTF-8" standalone="no"?>
<!-- Generator: Adobe Illustrator 13.0.0, SVG Export Plug-In . SVG Version: 6.00 Build 14948)  -->
<svg
   xmlns:dc="http://purl.org/dc/elements/1.1/"
   xmlns:cc="http://web.resource.org/cc/"
   xmlns:rdf="http://www.w3.org/1999/02/22-rdf-syntax-ns#"
   xmlns:svg="http://www.w3.org/2000/svg"
   xmlns="http://www.w3.org/2000/svg"
   xmlns:xlink="http://www.w3.org/1999/xlink"
   xmlns:sodipodi="http://sodipodi.sourceforge.net/DTD/sodipodi-0.dtd"
   xmlns:inkscape="http://www.inkscape.org/namespaces/inkscape"
   version="1.0"
   id="Layer_1"
   x="0px"
   y="0px"
   width="125"
   height="89"
   viewBox="0 0 115.229 79.304"
   enable-background="new 0 0 115.229 79.304"
   xml:space="preserve"
   sodipodi:version="0.32"
   inkscape:version="0.45.1"
   sodipodi:docname="natura2000.svg"
   inkscape:output_extension="org.inkscape.output.svg.inkscape"
   sodipodi:docbase="C:\Users\Virgile\Documents"><metadata
   id="metadata2405"><rdf:RDF><cc:Work
       rdf:about=""><dc:format>image/svg+xml</dc:format><dc:type
         rdf:resource="http://purl.org/dc/dcmitype/StillImage" /></cc:Work></rdf:RDF></metadata><defs
   id="defs2403"><clipPath
     id="SVGID_2_">
		<use
   xlink:href="#SVGID_1_"
   overflow="visible"
   id="use2330"
   style="overflow:visible"
   x="0"
   y="0"
   width="115.229"
   height="79.304001" />
	</clipPath></defs><sodipodi:namedview
   inkscape:window-height="575"
   inkscape:window-width="761"
   inkscape:pageshadow="2"
   inkscape:pageopacity="0.0"
   guidetolerance="10.0"
   gridtolerance="10.0"
   objecttolerance="10.0"
   borderopacity="1.0"
   bordercolor="#666666"
   pagecolor="#ffffff"
   id="base"
   width="125px"
   height="89px"
   showguides="true"
   inkscape:guide-bbox="true"
   inkscape:zoom="4.7538585"
   inkscape:cx="57.614498"
   inkscape:cy="48.066218"
   inkscape:window-x="138"
   inkscape:window-y="138"
   inkscape:current-layer="Layer_1" />

<g
   id="g2324"
   transform="matrix(0.920008,0,0,0.9183058,4.60916,3.2392425)">
	<defs
   id="defs2326">
		<rect
   id="SVGID_1_"
   width="115.229"
   height="79.304001"
   x="0"
   y="0" />
	</defs>
	<clipPath
   id="clipPath2414">
		<use
   xlink:href="#SVGID_1_"
   overflow="visible"
   id="use2416"
   style="overflow:visible"
   x="0"
   y="0"
   width="115.229"
   height="79.304001" />
	</clipPath>
	<path
   clip-path="url(#SVGID_2_)"
   d="M 104.689,73.952 C 104.689,71.709 104.624,70.236 104.488,69.535 C 104.394,69.022 104.258,68.767 104.083,68.767 C 103.875,68.767 103.719,69.133 103.62,69.865 C 103.519,70.597 103.471,72.011 103.471,74.104 C 103.471,75.855 103.542,77.094 103.686,77.821 C 103.774,78.272 103.903,78.498 104.065,78.498 C 104.173,78.498 104.274,78.394 104.362,78.19 C 104.451,77.985 104.522,77.55 104.576,76.884 C 104.652,75.983 104.689,75.006 104.689,73.952 M 104.107,68.055 C 104.508,68.055 104.872,68.251 105.197,68.643 C 105.521,69.036 105.794,69.675 106.015,70.564 C 106.234,71.454 106.341,72.487 106.341,73.666 C 106.341,74.854 106.234,75.884 106.017,76.755 C 105.804,77.626 105.525,78.258 105.185,78.652 C 104.847,79.048 104.474,79.245 104.064,79.245 C 103.455,79.245 102.953,78.806 102.56,77.931 C 102.064,76.844 101.816,75.438 101.816,73.711 C 101.816,72.491 101.924,71.443 102.138,70.568 C 102.353,69.692 102.627,69.053 102.964,68.655 C 103.301,68.255 103.682,68.055 104.107,68.055"
   id="path2332"
   style="fill:#034ea2" />
	<path
   clip-path="url(#SVGID_2_)"
   d="M 113.575,73.995 C 113.575,71.752 113.508,70.279 113.374,69.579 C 113.277,69.066 113.143,68.81 112.968,68.81 C 112.762,68.81 112.606,69.177 112.506,69.909 C 112.406,70.641 112.358,72.055 112.358,74.148 C 112.358,75.898 112.426,77.138 112.569,77.865 C 112.659,78.315 112.786,78.541 112.951,78.541 C 113.059,78.541 113.159,78.438 113.246,78.234 C 113.335,78.028 113.408,77.593 113.461,76.927 C 113.538,76.027 113.575,75.05 113.575,73.995 M 112.993,68.098 C 113.394,68.098 113.756,68.294 114.082,68.687 C 114.408,69.079 114.68,69.719 114.898,70.608 C 115.116,71.497 115.228,72.53 115.228,73.709 C 115.228,74.897 115.12,75.927 114.902,76.799 C 114.687,77.67 114.41,78.302 114.07,78.696 C 113.73,79.09 113.357,79.288 112.95,79.288 C 112.34,79.288 111.837,78.85 111.443,77.974 C 110.949,76.888 110.703,75.482 110.703,73.755 C 110.703,72.535 110.808,71.487 111.023,70.612 C 111.238,69.735 111.513,69.097 111.849,68.698 C 112.185,68.299 112.568,68.098 112.993,68.098"
   id="path2334"
   style="fill:#034ea2" />
	<path
   clip-path="url(#SVGID_2_)"
   d="M 95.762,73.951 C 95.762,71.708 95.694,70.235 95.561,69.534 C 95.464,69.021 95.332,68.765 95.157,68.765 C 94.946,68.765 94.792,69.132 94.692,69.864 C 94.592,70.596 94.543,72.01 94.543,74.103 C 94.543,75.854 94.614,77.093 94.757,77.82 C 94.847,78.271 94.974,78.497 95.14,78.497 C 95.246,78.497 95.345,78.393 95.433,78.189 C 95.521,77.984 95.594,77.549 95.65,76.883 C 95.723,75.982 95.762,75.005 95.762,73.951 M 95.182,68.054 C 95.58,68.054 95.944,68.25 96.27,68.642 C 96.594,69.035 96.867,69.674 97.086,70.563 C 97.305,71.453 97.414,72.486 97.414,73.665 C 97.414,74.853 97.307,75.883 97.09,76.754 C 96.874,77.625 96.598,78.257 96.257,78.651 C 95.917,79.047 95.544,79.244 95.139,79.244 C 94.528,79.244 94.026,78.805 93.631,77.93 C 93.137,76.843 92.889,75.437 92.889,73.71 C 92.889,72.49 92.996,71.443 93.211,70.567 C 93.424,69.691 93.701,69.052 94.038,68.654 C 94.373,68.254 94.754,68.054 95.182,68.054"
   id="path2336"
   style="fill:#034ea2" />
	<path
   clip-path="url(#SVGID_2_)"
   d="M 7.108,9.168 L 7.108,59.865 L 64.119,59.865 C 64.486,61.066 65.447,62.127 67.012,63.045 C 69.087,64.262 71.6,64.872 74.545,64.872 C 77.492,64.872 80.003,64.262 82.079,63.045 C 82.079,63.045 88.098,60.668 89.955,60.535 C 91.812,60.402 95.644,59.487 97.633,60.946 C 99.622,62.404 102.022,64.381 104.012,64.381 C 106.001,64.381 114.356,64.514 114.356,64.514 L 114.356,59.866 L 114.356,52.977 L 114.356,9.168 L 7.108,9.168 z "
   id="path2338"
   style="fill:#ffffff" />
	
		<path
   clip-path="url(#SVGID_2_)"
   stroke-miterlimit="10"
   d="M 7.108,9.168 L 7.108,59.865 L 64.119,59.865 C 64.486,61.066 65.447,62.127 67.012,63.045 C 69.087,64.262 71.6,64.872 74.545,64.872 C 77.492,64.872 80.003,64.262 82.079,63.045 C 82.079,63.045 88.098,60.668 89.955,60.535 C 91.812,60.402 95.644,59.487 97.633,60.946 C 99.622,62.404 102.022,64.381 104.012,64.381 C 106.001,64.381 114.356,64.514 114.356,64.514 L 114.356,59.866 L 114.356,52.977 L 114.356,9.168 L 7.108,9.168 z "
   id="path2340"
   style="fill:none;stroke:#ffffff;stroke-width:0.87;stroke-linejoin:round;stroke-miterlimit:10" />
	<polygon
   clip-path="url(#SVGID_2_)"
   points="7.1,65.914 77.441,65.962 58.324,42.892 49.642,52.063 41.019,56.026 35.298,47.763 32.942,53.304 30.44,47.716 26.329,42.056 7.1,32.146 7.1,65.914 "
   id="polygon2342"
   style="fill:#00a88e" />
	<path
   clip-path="url(#SVGID_2_)"
   d="M 86.667,2.771 L 83.648,5.35 C 83.648,5.35 83.025,6.462 82.787,6.71 C 82.504,7.002 81.812,7.335 81.004,7.786 C 79.965,8.364 78.815,8.939 77.984,9.768 C 76.806,10.947 76.195,12.516 75.831,14.042 C 75.303,16.252 74.6,17.499 72.264,18.125 C 71.268,18.393 68.473,18.561 67.119,18.628 C 66.992,18.634 60.715,18.727 59.99,18.697 C 59.683,18.685 56.288,18.598 55.736,18.484 C 55.626,18.462 54.051,17.368 53.121,17.218 C 52.625,17.138 52.129,17.185 51.77,17.337 C 51.601,17.408 51.3,17.599 51.023,17.934 C 50.601,18.442 50.504,18.578 50.102,18.747 C 49.97,18.803 48.503,19.203 48.435,19.224 C 48.233,19.291 48.205,19.368 48.205,19.368 L 48.32,19.465 C 48.32,19.465 51.113,19.472 51.223,19.465 C 51.333,19.457 52.394,19.649 53.638,19.653 C 54.184,19.655 54.781,19.854 55.276,19.893 C 57.224,20.043 64.276,21.082 66.199,21.35 C 69.3,21.782 76.765,24.17 79.452,24.575 C 83.098,25.124 87.056,24.69 90,24.096 C 95.402,23.005 100.131,22.205 105.898,21.468 C 106.464,21.396 110.451,20.842 110.582,20.825 C 111.57,20.7 111.531,20.25 111.531,20.25 C 111.531,20.25 111.505,19.918 110.871,19.94 C 110.113,19.969 106.564,20.169 105.926,20.203 C 101.106,20.461 93.826,20.118 91.977,19.705 C 91.739,19.672 91.614,19.639 91.209,19.486 C 89.738,18.904 89.229,17.179 89.656,14.161 C 89.931,12.223 92.443,0.022 92.443,0.022 L 92.443,0 C 92.443,0 92.375,0.014 92.299,0.144 C 92.168,0.375 88.394,7.094 88.394,7.094 L 89.482,1.361 L 86.38,5.708 L 86.667,2.771 z "
   id="path2344"
   style="fill:#034ea2" />
	<path
   clip-path="url(#SVGID_2_)"
   d="M 41.306,6.448 L 38.47,2.467 C 38.47,2.467 38.385,3.014 37.915,3.726 C 36.58,5.749 33.862,8.434 30.01,11.296 C 29.813,11.442 28.082,12.73 27.508,13.207 C 27.049,13.59 27.187,14.058 27.393,14.448 C 27.596,14.833 27.972,15.457 28.142,15.834 C 28.856,17.419 28.756,18.712 27.508,19.847 C 27.04,20.273 26.41,20.652 25.468,21.063 C 25.207,21.177 24.635,21.406 24.117,21.542 C 23.296,21.756 21.682,21.968 20.696,22.043 C 19.877,22.106 18.012,22.11 17.103,22.139 C 16.264,22.165 12.767,22.151 11.87,22.139 C 8.533,22.093 7.616,21.948 7.616,21.948 C 7.616,21.948 6.826,21.381 6.294,21.112 C 5.632,20.751 4.903,20.619 4.34,20.682 C 3.991,20.702 3.494,20.817 3.19,21.088 C 3.055,21.208 3.028,21.23 2.902,21.399 C 2.582,21.829 2.367,22.06 1.982,22.212 C 1.757,22.3 0.564,22.592 0.288,22.689 C 0.011,22.784 0,22.832 0,22.832 L 0.2,22.927 L 3.104,22.927 C 3.104,22.927 4.103,23.132 4.798,23.132 C 5.174,23.132 5.208,23.131 5.549,23.132 C 5.891,23.133 6.114,23.203 6.38,23.262 C 6.647,23.321 7.052,23.377 7.362,23.441 C 7.672,23.505 10.832,23.862 12.388,24.049 C 13.526,24.186 15.197,24.358 16.239,24.575 C 17.471,24.832 19.3,25.209 20.35,25.53 C 20.629,25.615 23.168,26.343 23.397,26.414 C 25.728,27.144 27.896,27.726 31.361,28.085 C 34.321,28.367 36.735,28.37 39.812,27.918 C 42.415,27.596 44.603,27 47.573,26.365 C 51.066,25.62 54.77,25.326 57.807,24.98 C 59.101,24.833 61.57,24.442 62.521,24.289 C 63.599,24.114 63.412,23.714 63.412,23.714 C 63.412,23.714 63.333,23.402 62.749,23.428 C 62.603,23.434 60.559,23.618 60.031,23.661 C 58.902,23.751 57.201,23.795 55.679,23.787 C 54.041,23.777 51.72,23.706 49.47,23.5 C 45.15,23.121 43.227,22.922 41.911,22.64 C 41.503,22.541 40.979,22.425 40.985,22.088 C 40.989,21.844 41.18,21.638 41.632,21.198 C 42.382,20.469 42.266,19.922 42.297,17.735 C 42.34,14.715 42.68,11.019 42.629,10.723 C 42.586,10.478 42.305,10.379 42.054,10.507 C 41.707,10.686 40.99,11.342 40.99,11.342 C 40.99,11.342 40.936,11.218 40.99,11.057 C 41.133,10.621 41.707,9.654 41.938,9.242 C 42.15,8.864 42.199,8.716 42.198,8.573 C 42.196,8.45 42.098,8.309 41.709,8.383 C 41.475,8.426 41.387,8.451 41.134,8.455 C 40.839,8.46 40.509,8.302 40.674,7.762 C 40.795,7.369 41.306,6.448 41.306,6.448"
   id="path2346"
   style="fill:#034ea2" />
	<path
   clip-path="url(#SVGID_2_)"
   d="M 17.851,20.993 C 17.851,20.993 17.682,19.933 17.706,18.818 C 17.73,17.705 17.851,16.671 17.851,16.671 C 17.851,16.671 18.116,17.056 18.368,17.339 C 19.855,19.01 21.547,19.661 24.461,19.559 C 25.474,19.524 26.186,19.345 26.186,19.345 C 26.186,19.345 25.557,19.706 24.835,19.965 C 21.658,21.104 17.851,20.993 17.851,20.993"
   id="path2348"
   style="fill:#034ea2" />
	<polygon
   clip-path="url(#SVGID_2_)"
   points="11.813,75.108 8.939,68.398 6.38,68.398 7.387,68.779 7.387,78.571 6.38,78.929 8.968,78.929 8.048,78.571 8.048,70.284 11.727,78.929 12.447,78.929 12.447,68.779 13.423,68.398 10.779,68.398 11.813,68.779 11.813,75.108 "
   id="polygon2350"
   style="fill:#034ea2" />
	<polygon
   clip-path="url(#SVGID_2_)"
   stroke-miterlimit="3.864"
   points="11.813,75.108 8.939,68.398 6.38,68.398 7.387,68.779 7.387,78.571 6.38,78.929 8.968,78.929 8.048,78.571 8.048,70.284 11.727,78.929 12.447,78.929 12.447,68.779 13.423,68.398 10.779,68.398 11.813,68.779 11.813,75.108 "
   id="polygon2352"
   style="fill:none;stroke:#034ea2;stroke-width:0.44299999;stroke-miterlimit:3.86400008" />
	<polygon
   clip-path="url(#SVGID_2_)"
   points="21.529,75.085 22.392,75.085 21.558,71.12 21.529,71.263 21.529,69.28 21.759,68.349 22.277,68.349 24.95,78.571 25.899,78.929 22.335,78.929 23.282,78.571 22.449,75.348 21.529,75.348 21.529,75.085 "
   id="polygon2354"
   style="fill:#034ea2" />
	<polygon
   clip-path="url(#SVGID_2_)"
   stroke-miterlimit="3.864"
   points="21.529,75.085 22.392,75.085 21.558,71.12 21.529,71.263 21.529,69.28 21.759,68.349 22.277,68.349 24.95,78.571 25.899,78.929 22.335,78.929 23.282,78.571 22.449,75.348 21.529,75.348 21.529,75.085 "
   id="polygon2356"
   style="fill:none;stroke:#034ea2;stroke-width:0.44299999;stroke-miterlimit:3.86400008" />
	<polygon
   clip-path="url(#SVGID_2_)"
   points="21.529,71.263 20.667,75.085 21.529,75.085 21.529,75.348 20.638,75.348 19.776,78.571 20.724,78.929 18.138,78.929 19.114,78.571 21.529,69.28 21.529,71.263 "
   id="polygon2358"
   style="fill:#034ea2" />
	<polygon
   clip-path="url(#SVGID_2_)"
   stroke-miterlimit="3.864"
   points="21.529,71.263 20.667,75.085 21.529,75.085 21.529,75.348 20.638,75.348 19.776,78.571 20.724,78.929 18.138,78.929 19.114,78.571 21.529,69.28 21.529,71.263 "
   id="polygon2360"
   style="fill:none;stroke:#034ea2;stroke-width:0.44299999;stroke-miterlimit:3.86400008" />
	<polygon
   clip-path="url(#SVGID_2_)"
   points="37.166,71.669 37.166,68.398 31.389,68.398 31.389,71.669 31.475,71.669 32.568,68.685 33.46,68.685 33.46,78.571 32.281,78.929 36.247,78.929 35.097,78.571 35.097,68.685 36.016,68.685 37.109,71.669 37.166,71.669 "
   id="polygon2362"
   style="fill:#034ea2" />
	<polygon
   clip-path="url(#SVGID_2_)"
   stroke-miterlimit="3.864"
   points="37.166,71.669 37.166,68.398 31.389,68.398 31.389,71.669 31.475,71.669 32.568,68.685 33.46,68.685 33.46,78.571 32.281,78.929 36.247,78.929 35.097,78.571 35.097,68.685 36.016,68.685 37.109,71.669 37.166,71.669 "
   id="polygon2364"
   style="fill:none;stroke:#034ea2;stroke-width:0.44299999;stroke-miterlimit:3.86400008" />
	<path
   clip-path="url(#SVGID_2_)"
   d="M 49.067,68.755 L 50.016,68.399 L 47.401,68.399 L 48.406,68.755 C 48.406,68.755 48.417,75.43 48.406,75.562 C 48.313,76.75 48.183,77.298 47.89,77.832 C 47.62,78.321 47.2,78.725 46.664,78.696 C 46.145,78.67 45.955,78.291 45.88,78.052 C 45.84,77.927 45.793,77.614 45.733,76.398 C 45.722,76.193 45.733,68.755 45.733,68.755 L 46.71,68.399 L 43.147,68.399 L 44.123,68.755 C 44.123,68.755 44.122,74.943 44.123,75.085 C 44.144,78.019 45.117,78.532 45.56,78.814 C 46.442,79.21 47.119,79.155 47.786,78.73 C 48.118,78.519 49.039,77.83 49.067,75.132 C 49.069,75.001 49.067,68.755 49.067,68.755"
   id="path2366"
   style="fill:#034ea2" />
	<path
   clip-path="url(#SVGID_2_)"
   stroke-miterlimit="3.864"
   d="M 49.067,68.755 L 50.016,68.399 L 47.401,68.399 L 48.406,68.755 C 48.406,68.755 48.417,75.43 48.406,75.562 C 48.313,76.75 48.183,77.298 47.89,77.832 C 47.62,78.321 47.2,78.725 46.664,78.696 C 46.145,78.67 45.955,78.291 45.88,78.052 C 45.84,77.927 45.793,77.614 45.733,76.398 C 45.722,76.193 45.733,68.755 45.733,68.755 L 46.71,68.399 L 43.147,68.399 L 44.123,68.755 C 44.123,68.755 44.122,74.943 44.123,75.085 C 44.144,78.019 45.117,78.532 45.56,78.814 C 46.442,79.21 47.119,79.155 47.786,78.73 C 48.118,78.519 49.039,77.83 49.067,75.132 C 49.069,75.001 49.067,68.755 49.067,68.755 z "
   id="path2368"
   style="fill:none;stroke:#034ea2;stroke-width:0.44299999;stroke-miterlimit:3.86400008" />
	<path
   clip-path="url(#SVGID_2_)"
   d="M 59.186,78.929 L 59.272,78.929 L 59.186,78.929 z "
   id="path2370"
   style="fill:#034ea2" />
	<path
   clip-path="url(#SVGID_2_)"
   stroke-miterlimit="3.864"
   d="M 59.186,78.929 L 59.272,78.929 L 59.186,78.929 z "
   id="path2372"
   style="fill:none;stroke:#034ea2;stroke-width:0.44299999;stroke-miterlimit:3.86400008" />
	<path
   clip-path="url(#SVGID_2_)"
   d="M 59.186,68.779 C 58.942,68.705 58.266,68.684 58.266,68.684 L 58.266,73.079 C 58.266,73.079 58.655,73.12 59.186,72.983 L 59.178,73.434 L 58.928,73.387 L 58.266,73.364 L 58.266,78.571 L 59.186,78.928 L 55.68,78.928 L 56.657,78.571 L 56.657,68.755 L 55.68,68.399 L 58.037,68.399 C 58.037,68.399 59.024,68.407 59.207,68.424 C 59.39,68.44 60.763,68.597 61.38,69.501 C 61.877,70.23 61.785,71.265 61.603,71.718 C 61.345,72.352 60.963,72.622 60.308,72.935 C 60.163,73.005 59.273,73.222 59.273,73.222 C 59.273,73.222 59.867,73.352 60.049,73.365 C 60.621,73.408 60.91,73.644 61.056,74.011 C 61.119,74.17 61.211,74.466 61.256,74.632 C 61.304,74.799 62.206,78.572 62.206,78.572 L 63.097,78.929 L 60.566,78.929 C 60.566,78.929 59.677,74.168 59.589,73.867 C 59.482,73.496 59.179,73.434 59.179,73.434 L 59.187,72.983 L 59.245,72.959 C 59.245,72.959 59.939,72.753 60.05,71.933 C 60.169,71.048 60.133,70.369 60.05,69.783 C 59.938,69.003 59.381,68.839 59.186,68.779"
   id="path2374"
   style="fill:#034ea2" />
	<path
   clip-path="url(#SVGID_2_)"
   stroke-miterlimit="3.864"
   d="M 59.186,68.779 C 58.942,68.705 58.266,68.684 58.266,68.684 L 58.266,73.079 C 58.266,73.079 58.655,73.12 59.186,72.983 L 59.178,73.434 L 58.928,73.387 L 58.266,73.364 L 58.266,78.571 L 59.186,78.928 L 55.68,78.928 L 56.657,78.571 L 56.657,68.755 L 55.68,68.399 L 58.037,68.399 C 58.037,68.399 59.024,68.407 59.207,68.424 C 59.39,68.44 60.763,68.597 61.38,69.501 C 61.877,70.23 61.785,71.265 61.603,71.718 C 61.345,72.352 60.963,72.622 60.308,72.935 C 60.163,73.005 59.273,73.222 59.273,73.222 C 59.273,73.222 59.867,73.352 60.049,73.365 C 60.621,73.408 60.91,73.644 61.056,74.011 C 61.119,74.17 61.211,74.466 61.256,74.632 C 61.304,74.799 62.206,78.572 62.206,78.572 L 63.097,78.929 L 60.566,78.929 C 60.566,78.929 59.677,74.168 59.589,73.867 C 59.482,73.496 59.179,73.434 59.179,73.434 L 59.187,72.983 L 59.245,72.959 C 59.245,72.959 59.939,72.753 60.05,71.933 C 60.169,71.048 60.133,70.369 60.05,69.783 C 59.938,69.003 59.381,68.839 59.186,68.779 z "
   id="path2376"
   style="fill:none;stroke:#034ea2;stroke-width:0.44299999;stroke-miterlimit:3.86400008" />
	<polygon
   clip-path="url(#SVGID_2_)"
   points="71.259,75.085 72.121,75.085 71.316,71.12 71.259,71.287 71.259,69.28 71.518,68.349 72.035,68.349 74.682,78.571 75.658,78.929 72.064,78.929 73.041,78.571 72.208,75.348 71.259,75.348 71.259,75.085 "
   id="polygon2378"
   style="fill:#034ea2" />
	<polygon
   clip-path="url(#SVGID_2_)"
   stroke-miterlimit="3.864"
   points="71.259,75.085 72.121,75.085 71.316,71.12 71.259,71.287 71.259,69.28 71.518,68.349 72.035,68.349 74.682,78.571 75.658,78.929 72.064,78.929 73.041,78.571 72.208,75.348 71.259,75.348 71.259,75.085 "
   id="polygon2380"
   style="fill:none;stroke:#034ea2;stroke-width:0.44299999;stroke-miterlimit:3.86400008" />
	<polygon
   clip-path="url(#SVGID_2_)"
   points="71.259,71.287 70.454,75.085 71.259,75.085 71.259,75.348 70.367,75.348 69.534,78.571 70.512,78.929 67.895,78.929 68.844,78.571 71.259,69.28 71.259,71.287 "
   id="polygon2382"
   style="fill:#034ea2" />
	<polygon
   clip-path="url(#SVGID_2_)"
   stroke-miterlimit="3.864"
   points="71.259,71.287 70.454,75.085 71.259,75.085 71.259,75.348 70.367,75.348 69.534,78.571 70.512,78.929 67.895,78.929 68.844,78.571 71.259,69.28 71.259,71.287 "
   id="polygon2384"
   style="fill:none;stroke:#034ea2;stroke-width:0.44299999;stroke-miterlimit:3.86400008" />
	<path
   clip-path="url(#SVGID_2_)"
   d="M 85.488,68.994 L 84.97,68.255 L 84.97,71.669 L 85,71.669 C 85,71.669 85.525,69.613 85.91,69.053 C 86.275,68.523 86.941,68.582 87.236,69.037 C 87.419,69.318 87.685,69.932 87.185,71.788 C 86.911,72.807 84.654,78.929 84.654,78.929 L 88.275,78.929 L 88.275,75.634 L 88.248,75.634 L 87.529,78.141 L 85.316,78.141 C 85.316,78.141 88.157,72.818 88.452,71.424 C 88.806,69.744 88.053,68.687 87.17,68.39 C 86.198,68.063 85.488,68.994 85.488,68.994"
   id="path2386"
   style="fill:#034ea2" />
	<path
   clip-path="url(#SVGID_2_)"
   stroke-miterlimit="3.864"
   d="M 85.488,68.994 L 84.97,68.255 L 84.97,71.669 L 85,71.669 C 85,71.669 85.525,69.613 85.91,69.053 C 86.275,68.523 86.941,68.582 87.236,69.037 C 87.419,69.318 87.685,69.932 87.185,71.788 C 86.911,72.807 84.654,78.929 84.654,78.929 L 88.275,78.929 L 88.275,75.634 L 88.248,75.634 L 87.529,78.141 L 85.316,78.141 C 85.316,78.141 88.157,72.818 88.452,71.424 C 88.806,69.744 88.053,68.687 87.17,68.39 C 86.198,68.063 85.488,68.994 85.488,68.994 z "
   id="path2388"
   style="fill:none;stroke:#034ea2;stroke-width:0.44299999;stroke-miterlimit:3.86400008" />
	<path
   clip-path="url(#SVGID_2_)"
   stroke-miterlimit="3.864"
   d="M 7.1,20.179 L 7.1,9.073 L 31.16,9.073 M 43.405,9.073 L 77.065,9.073"
   id="path2390"
   style="fill:none;stroke:#00a88e;stroke-width:0.86500001;stroke-miterlimit:3.86400008" />
	
		<line
   clip-path="url(#SVGID_2_)"
   stroke-miterlimit="3.864"
   x1="7.1090002"
   y1="65.936996"
   x2="7.1100001"
   y2="25.983"
   id="line2392"
   style="fill:none;stroke:#034ea2;stroke-width:0.86500001;stroke-miterlimit:3.86400008" />
	<path
   clip-path="url(#SVGID_2_)"
   d="M 67.005,49.889 C 67.005,49.889 67.108,49.979 67.18,50.057 C 68.192,51.151 71.518,55.239 71.518,55.239 C 71.518,55.239 74.46,56.57 79.539,56.433 C 81.971,56.369 84.721,55.69 86.007,55.454 C 86.507,55.361 86.977,55.276 87.76,55.19 C 90.485,54.891 91.725,54.891 93.796,56.216 C 94.307,56.543 99.589,59.746 99.945,59.967 C 101.89,61.167 104.718,60.902 105.839,60.541 C 108.1,59.811 109.846,59.223 112.826,59.655 C 113.202,59.711 114.262,59.942 114.262,59.942 C 114.262,59.942 111.35,57.808 110.008,57.052 C 108.204,56.037 106.311,55.597 104.546,55.929 C 104.195,55.996 104.518,55.905 104.518,55.905 C 104.518,55.905 100.653,56.836 98.625,56.932 C 97.732,56.975 95.348,57.188 92.76,54.785 C 91.546,53.564 90.63,52.739 90.116,52.419 C 88.982,51.709 87.48,51.53 86.15,51.513 C 85.707,51.507 82.265,51.619 79.452,51.703 C 76.689,51.786 71.566,51.442 69.017,50.557 C 68.477,50.371 67.005,49.889 67.005,49.889"
   id="path2394"
   style="fill:#00a88e" />
	<path
   clip-path="url(#SVGID_2_)"
   d="M 114.551,65.794 L 114.436,62.977 C 114.436,62.977 112.686,62.087 110.326,62.045 C 108.766,62.017 107.125,62.538 104.489,63.12 C 103.34,63.374 101.249,63.495 99.862,62.594 C 98.744,61.867 97.839,61.188 97.044,60.397 C 96.668,60.021 96.333,59.606 95.724,59.012 C 94.386,57.709 93.861,57.418 92.619,57.316 C 90.646,57.155 88.873,57.542 86.842,57.723 C 84.069,57.97 79.203,58.527 72.784,56.648 C 72.414,56.54 72.439,56.48 72.439,56.48 C 72.439,56.48 73.211,57.28 73.502,57.581 C 75.758,59.908 80.202,65.246 80.202,65.246 C 80.202,65.246 80.494,65.1 81.108,64.807 C 86.309,62.319 91.055,61.593 91.956,61.449 C 94.524,61.04 96.558,61.04 98.28,62.214 C 98.774,62.549 98.766,62.525 99.315,62.883 C 101.231,64.129 104.332,66.131 105.926,66.655 C 107.634,67.218 108.828,67.248 110.294,66.894 C 112.082,66.463 114.551,65.794 114.551,65.794"
   id="path2396"
   style="fill:#00a88e" />
	<polyline
   clip-path="url(#SVGID_2_)"
   stroke-miterlimit="3.864"
   points="   92.07,9.075 114.635,9.075 114.635,65.804  "
   id="polyline2398"
   style="fill:none;stroke:#034ea2;stroke-width:0.86500001;stroke-miterlimit:3.86400008" />
	<path
   clip-path="url(#SVGID_2_)"
   stroke-miterlimit="3.864"
   d="M 51.885,29.065 L 50.965,31.429 L 47.919,31.429 L 50.362,32.956 L 49.413,35.439 L 51.885,33.886 L 54.357,35.439 L 53.409,32.98 L 55.881,31.428 L 52.805,31.428 L 51.885,29.065 z M 62.979,27.13 L 62.088,29.494 L 59.07,29.494 L 61.513,30.999 L 60.535,33.507 L 62.977,31.979 L 65.479,33.507 L 64.503,31.024 L 67.003,29.495 L 63.897,29.495 L 62.979,27.13 z M 74.104,29.111 L 73.214,31.452 L 70.167,31.452 L 72.611,33.005 L 71.661,35.466 L 74.134,33.96 L 76.606,35.466 L 75.629,33.005 L 78.102,31.452 L 75.024,31.452 L 74.104,29.111 z M 81.494,35.942 L 80.574,38.306 L 77.554,38.306 L 79.996,39.834 L 79.02,42.317 L 81.52,40.764 L 83.993,42.317 L 82.985,39.857 L 85.487,38.305 L 82.41,38.305 L 81.494,35.942 z M 84.311,44.97 L 83.418,47.335 L 80.344,47.335 L 82.815,48.861 L 81.868,51.345 L 84.339,49.793 L 86.785,51.345 L 85.835,48.885 L 88.308,47.334 L 85.23,47.334 L 84.311,44.97 z M 41.565,44.97 L 40.674,47.31 L 37.628,47.31 L 40.098,48.839 L 39.122,51.321 L 41.594,49.794 L 44.094,51.321 L 43.117,48.861 L 45.618,47.309 L 42.513,47.309 L 41.565,44.97 z M 44.497,35.942 L 43.577,38.306 L 40.53,38.306 L 42.973,39.834 L 42.026,42.317 L 44.497,40.764 L 46.998,42.317 L 46.02,39.857 L 48.492,38.305 L 45.388,38.305 L 44.497,35.942 z "
   id="path2400"
   style="fill:none;stroke:#034ea2;stroke-width:0.20999999;stroke-miterlimit:3.86400008" />
</g></svg>