<?xml version="1.0" encoding="UTF-8" standalone="no"?>
<!-- Created with Inkscape (http://www.inkscape.org/) -->

<svg
   xmlns:dc="http://purl.org/dc/elements/1.1/"
   xmlns:cc="http://creativecommons.org/ns#"
   xmlns:rdf="http://www.w3.org/1999/02/22-rdf-syntax-ns#"
   xmlns:svg="http://www.w3.org/2000/svg"
   xmlns="http://www.w3.org/2000/svg"
   xmlns:sodipodi="http://sodipodi.sourceforge.net/DTD/sodipodi-0.dtd"
   xmlns:inkscape="http://www.inkscape.org/namespaces/inkscape"
   id="svg3355"
   version="1.1"
   inkscape:version="0.91 r13725"
   xml:space="preserve"
   width="354.32501"
   height="354.32501"
   viewBox="0 0 354.32501 354.32501"
   sodipodi:docname="wegwijzer.svg"><metadata
     id="metadata3361"><rdf:RDF><cc:Work
         rdf:about=""><dc:format>image/svg+xml</dc:format><dc:type
           rdf:resource="http://purl.org/dc/dcmitype/StillImage" /><dc:title></dc:title></cc:Work></rdf:RDF></metadata><defs
     id="defs3359" /><sodipodi:namedview
     pagecolor="#ffffff"
     bordercolor="#666666"
     borderopacity="1"
     objecttolerance="10"
     gridtolerance="10"
     guidetolerance="10"
     inkscape:pageopacity="0"
     inkscape:pageshadow="2"
     inkscape:window-width="1873"
     inkscape:window-height="1056"
     id="namedview3357"
     showgrid="false"
     inkscape:zoom="2.5936639"
     inkscape:cx="177.16251"
     inkscape:cy="177.16251"
     inkscape:window-x="47"
     inkscape:window-y="24"
     inkscape:window-maximized="1"
     inkscape:current-layer="g3363" /><g
     id="g3363"
     inkscape:groupmode="layer"
     inkscape:label="ink_ext_XXXXXX"
     transform="matrix(1.25,0,0,-1.25,0,354.325)"><g
       id="g3365"
       transform="scale(0.1,0.1)"><path
         d="m 2706.42,1190.67 c -78.51,91.48 -305.46,292.02 -565.55,352.28 -45.93,-87.23 -122.59,-159.62 -222.23,-209.75 -88.45,-44.48 -192.51,-70.01 -293.06,-71.9 l -22.93,-0.43 -0.48,22.93 c -1.05,49.65 -9.15,95.48 -24.1,136.69 -15.95,-47.34 -48.52,-104.94 -77.01,-132.62 l -16.69,-16.21 -16,16.88 c -14.9,15.71 -39.85,26.26 -53.79,26.26 -13.94,0 -38.89,-10.55 -53.81,-26.27 l -16,-16.86 -16.68,16.21 c -28.46,27.66 -61.03,85.28 -77,132.58 -14.95,-41.25 -23.04,-87.06 -24.08,-136.66 l -0.49,-22.93 -22.92,0.43 c -100.55,1.89 -204.627,27.42 -293.065,71.9 -99.629,50.11 -176.281,122.51 -222.226,209.75 -260.09,-60.21 -487.051,-260.79 -565.567,-352.28 182.168,7.19 393.817,-37.67 424.52,-274.611 186.496,10.191 407.785,-31.09 439.23,-274.02 16.258,0.883 32.778,1.371 49.418,1.371 158.99,0 328.18,-44.629 378.59,-220.441 44.53,158.679 188.23,232.351 428.2,219.07 25.61,196.68 173.34,288.641 439.24,274.02 17.91,135.851 107.98,286.981 424.48,274.611"
         style="fill:#100f0d;fill-opacity:1;fill-rule:nonzero;stroke:none"
         id="path3367"
         inkscape:connector-curvature="0" /><path
         d="m 954.957,540.691 c 8.508,-8.32 22.492,-20.332 28.84,-28.222 l 1.004,-1 -0.731,-0.739 c 0.692,-1.519 3.438,-3.789 3.418,-4.82 -0.031,-1.23 -4.023,-5.711 -5.402,-7.719 -1.473,-1.91 -3.887,-4.179 -5.77,-5.902 l -2.519,-2.57 c -2.402,-1.43 -4.719,1.461 -8.145,5.043 -4.043,4.367 -10.984,13.058 -14.433,16.418 -0.91,0.898 -5.156,5.058 -5.977,5.019 -2.062,0.141 -6.086,-6 -7.14,-7.277 l -1.59,-2.231 c -0.938,-0.961 -1.985,-1.41 -3.254,-3.32 l -0.957,-1.781 c -0.235,-1.25 3.097,-4.918 4.707,-6.93 1.719,-2.09 3.73,-4.691 5.246,-6.39 2.617,-2.969 5.672,-4.711 7.266,-7.95 1.289,-2.519 0.773,-3.039 -1.875,-6.761 -2.54,-3.61 -3.895,-4.59 -7.559,-7.707 -1.465,-1.293 -2.637,-3.09 -3.555,-3.032 -1.238,0.16 -4.656,4.551 -5.566,5.45 -4.66,4.55 -7.961,9.671 -13.274,12.152 l -2.558,1.027 c -1.649,-0.269 -7.469,-8.629 -9.676,-11.301 l -2.09,-1.527 c -1.367,-1.601 -2.023,-3.262 -2.969,-4.43 -2.207,-2.679 -4.531,-5.652 -7.898,-9.472 -0.531,-0.547 -8,-9.18 -9.027,-9.219 -1.133,0.059 -9.52,8.879 -10.828,10.582 l -1.008,0.996 0.324,1.152 -4.543,5.079 c -0.176,1.429 5.305,7.812 8.762,10.941 2.304,2.148 7.019,6.781 10.078,10.289 2.41,2.68 4.012,5.512 5.801,7.32 1.25,1.289 3.867,3.153 4.285,3.789 1.574,1.614 2.023,3.274 2.961,4.223 5.8,7.348 12.82,13.5 18.699,19.91 6.418,6.949 13.215,12.457 19.113,19.489 1.16,1.378 2.86,4.121 3.699,5.191 1.059,1.269 1.282,2.109 2.219,2.871 1.465,1.078 3.524,1.367 5.254,-0.113 l 0.703,-0.688 c 1.328,-0.883 3.133,-3.062 5.965,-5.84"
         style="fill:#231f20;fill-opacity:1;fill-rule:nonzero;stroke:none"
         id="path3369"
         inkscape:connector-curvature="0" /><path
         d="m 1042.51,462.488 c 2.54,-2.027 7.84,-5.328 8.42,-7.437 0.58,-1.352 4.17,-3.403 5.76,-5.289 1.33,-1.551 2.74,-4.422 2.77,-4.633 -0.03,-2.207 -3.47,-6.188 -6.02,-8.988 -0.9,-0.993 -3.64,-4.02 -4.16,-4.02 l -4.59,2.598 c -2.19,1.793 -1.61,2.851 -3.54,2.57 -1.86,-0.129 -4.02,-4.289 -5.66,-6.07 -4.9,-4.797 -11.03,-16.11 -16,-22.688 l -2.3,-1.492 -1.05,-2.398 c -3.54,-4.852 -8.1,-10.629 -12.03,-15.551 -1.33,-1.809 -6.329,-6.52 -6.438,-8.121 -0.086,-1.797 2.828,-2.617 3.628,-3.207 1.17,-1.032 4.22,-3.063 4.45,-3.981 0.27,-1.312 -3.11,-4.98 -4.52,-6.922 l -1.15,-2.3 c -0.982,-1.348 -1.869,-3.278 -3.365,-4.61 l -3.797,-2.808 c -0.195,-0.039 -4.27,2.558 -6.184,3.769 -2.039,1.289 -4.382,2.629 -6.218,3.961 -5.215,3.418 -10,8.399 -13.118,10.84 -4.121,3.008 -9.605,5.328 -10.722,8.359 -1.063,2.641 2.383,7.371 4.308,10.239 1.055,1.461 2,3 2.735,3.769 l 4.609,2.953 5.145,-3.75 -0.528,-0.73 2.551,-1.313 1.524,-0.539 c 3.046,0.563 8.339,11.211 11.582,15.903 3.984,6.187 8.445,11.847 11.988,17.437 l 0.73,0.02 c 0.35,0.48 1.4,3.613 2.29,4.82 0.7,0.98 1.76,1.699 2.46,2.68 2.19,3.222 7.22,10.132 10.27,14.8 l 1.92,3.61 c -0.43,2.543 -5.01,3.461 -6.98,5.082 -3.03,2.578 -0.21,5.73 2.01,9.488 0.95,1.531 1.6,2.91 2.65,4.383 0.6,1.047 1.94,3.59 3.1,4.238 l 2.37,0.129 0.8,-0.578 c 3.64,-0.781 13.92,-9.02 20.3,-14.223"
         style="fill:#231f20;fill-opacity:1;fill-rule:nonzero;stroke:none"
         id="path3371"
         inkscape:connector-curvature="0" /><path
         d="m 1151.76,399.762 c 0.28,-1 -2.11,-3.133 -2.15,-4.133 l 0.66,-0.848 c -0.27,-0.531 -3.29,-3.871 -3.99,-5.531 -0.73,-1.988 -4.3,-7.93 -4.69,-8.07 -1.05,-0.469 -4.22,0.179 -6.11,0.82 -4.99,1.762 -11.65,6.43 -17.52,8.629 l -1.25,0.672 -0.49,-0.942 -5.85,2.563 c -0.98,-0.352 -4.1,-4.813 -4.66,-5.883 -1.02,-1.66 -3.11,-5.641 -2.67,-7.25 0.63,-2.16 7.94,-4.98 11.19,-7.008 0.81,-0.582 1.86,-1.312 3.18,-2.172 0.99,-0.847 2.24,-1.5 3.23,-2.359 2.68,-1.891 6.17,-4.059 4.62,-7.648 -0.29,-0.864 -1.19,-1.082 -1.55,-2.071 -0.36,-1 -0.6,-2.062 -1.09,-2.992 -0.49,-1.269 -2.04,-4.508 -3.54,-6.777 l -3.12,-4.141 c -0.31,0 -1.74,0.918 -3.5,1.828 -4.21,2.039 -9.73,4.91 -15.33,7.332 -1.7,0.719 -4.15,1.821 -5.63,1.758 -4.24,-0.18 -6.41,-6.488 -9.09,-11.019 l -1.77,-2.461 c -2.24,-4.918 -1.84,-5.977 3.39,-8.2 1.32,-0.507 2.4,-0.57 4.09,-1.621 1.51,-0.789 2.8,-2.308 5.1,-3.679 2.88,-1.829 6.36,-2.809 9.25,-4.309 3.13,-1.641 6.57,-3.621 7.08,-5.391 0.16,-0.609 -0.45,-1.468 -0.69,-2.519 -1.02,-3.211 -2.92,-4.399 -5.17,-7.801 -1.84,-2.59 -2.82,-4.801 -4.11,-6.66 -1.11,-1.789 -1.83,-3.777 -3.23,-5.25 l -1.16,-0.078 c -0.46,-0.27 -1.18,-2.262 -2.26,-2.199 l -3.89,2.027 0.49,0.93 c -0.68,0.863 -4.38,2.621 -6.19,3.73 -5.8,3.871 -14.69,7.332 -22.18,12.25 l -1.75,0.922 0.41,0.801 c 0.07,0.136 -5.23,3.418 -6.99,4.34 -3.26,1.687 -7.51,2.726 -8.15,4.23 0,0 1.1,5.199 1.95,7.109 0.9,1.739 2.47,2.618 3.51,4.61 0.62,0.859 1.07,2.66 1.5,3.789 3.33,7.91 9.3,17.832 14.08,28.199 3.22,6.781 6.55,13.172 10.27,19.691 4.2,7.129 7.01,14.629 10.21,19.551 1.22,1.739 2.55,2.758 3.31,4.199 3.64,6.079 3.08,11.098 9.19,10.282 0.89,-0.121 1.62,-1.18 2.64,-1.371 l 0.85,0.738 c 2.86,-0.641 8.22,-4.449 11.11,-4.098 2.77,0.41 8.75,-3.73 12.43,-4.633 0.82,-0.269 1.97,-0.199 2.92,-0.507 4.93,-1.563 11.25,-5.371 16.71,-8.039 l 6.4,-3.34"
         style="fill:#231f20;fill-opacity:1;fill-rule:nonzero;stroke:none"
         id="path3373"
         inkscape:connector-curvature="0" /><path
         d="m 1232.4,371.379 c 4.33,-3.168 14.44,-4.57 20.53,-7.82 1.66,-0.86 3.35,-2.52 3.52,-3.36 0.69,-2.91 -2.75,-9.347 -3.49,-10.699 -0.46,-0.961 -1.64,-2.301 -2.79,-3.98 -0.95,-1.122 -2.47,-3.93 -2.93,-3.95 -2.43,-0.621 -12.46,4.711 -16,5.711 -1.49,0.481 -4.53,1.168 -4.72,1.071 -2.34,-0.821 -2.81,-6.352 -3.61,-9.243 -0.24,-1.187 -0.7,-2.148 -1.12,-3.437 -2.7,-8.731 -5.68,-17.871 -8.39,-27.563 -1.31,-4.468 -2.17,-8.918 -3.39,-13.57 -3.26,-10.937 -6.34,-20.82 -10.03,-33.508 -0.94,-3.332 -1.19,-6.39 -1.56,-6.59 l -2.61,-0.25 c -4.59,0.547 -11.54,3.438 -16.29,5.309 -0.94,0.309 -2.2,0.57 -3.22,1.059 l -1.97,1.73 c -0.22,0.711 2.15,7.52 2.94,10.41 2.68,10.02 7.22,22.11 10.17,32.992 0.42,1.289 1.2,6.411 1.81,8.731 1.4,5.219 5.83,18.769 8.61,26.387 0.46,0.961 5.29,11.23 4.33,13.281 -0.88,1.859 -7.63,2.172 -9.84,2.738 -1.8,0.434 -4.71,1.524 -7.4,2.402 -2.6,0.7 -5.66,0.918 -6.46,2.11 -0.31,0.43 0.09,8.019 0.55,9.449 0.33,1 1.44,3.481 2.29,6.992 0.51,2.051 0.82,5.258 1.5,5.981 2.55,2.808 12.99,-1.703 19.23,-3.59 8.97,-2.602 16.15,-4.793 21.59,-5.942 0.67,-0.218 6.55,-1.351 8.75,-2.851"
         style="fill:#231f20;fill-opacity:1;fill-rule:nonzero;stroke:none"
         id="path3375"
         inkscape:connector-curvature="0" /><path
         d="m 1331.63,346.629 c 0.34,-0.66 2.58,-0.957 4.21,-1.641 3.22,-1.5 6.04,-2.789 8.62,-4.797 0.91,-0.73 2.25,-1.371 3.09,-2.543 l 0.42,-1.117 2.24,-1.359 c 1,-1.063 5.23,-6.762 5.15,-8.422 -0.05,-1.371 -3.36,-5.738 -4.34,-6.68 l -2.04,-1.39 c -2.41,-1.93 -5.86,-5.25 -8.54,-5.039 -3.36,0.449 -7.44,7.211 -10.03,9.238 -1.18,0.762 -3.45,1.973 -5.07,2.66 -1.74,0.84 -2.74,1.871 -6.17,1.891 -3.15,-0.02 -8.33,-2.5 -9.66,-5.961 -3.54,-10.25 6.7,-14.821 12.79,-18.367 1.06,-0.614 2.1,-1.352 3.17,-1.961 3.72,-2.012 5.56,-3.18 9.05,-5.922 2.84,-2.199 5.32,-3.899 7.86,-6.207 1.52,-1.422 3.09,-2.543 4.85,-4.293 l 0.76,-1.778 1.34,-0.632 c 0.48,-0.68 0.4,-1.27 0.7,-2.219 l 1.34,-1.68 c 0.44,-0.98 0.9,-1.801 1.48,-2.801 0.34,-0.64 0.42,-2.16 1.06,-3.757 0.08,-0.473 0.96,-1.352 1.13,-2.27 0.06,-0.633 -0.01,-2.133 -0.01,-3.184 0.24,-4.57 -0.91,-14.109 -2.91,-18.378 -0.59,-1.141 -0.89,-2.29 -1.47,-3.418 -0.56,-1 -1.27,-1.954 -1.8,-2.793 -1.09,-1.661 -2.06,-3.5 -3.72,-5.239 l -2.24,-1.808 c -2.33,-2.43 -3.01,-4.301 -6.02,-5.403 l -2.1,-0.777 c -2.43,-1.031 -4.53,-1.793 -7.78,-2.57 -1.18,-0.301 -2.98,-0.961 -3.98,-0.961 -2.73,-0.102 -6.6,0.898 -11.65,1.578 -3.64,0.492 -7.92,0.473 -11.49,1.562 -2.34,0.629 -5.37,2.539 -8.29,4.161 -2.93,1.597 -6,3.226 -7.66,4.668 l -0.42,1.109 -0.97,0.141 c -1.01,1.039 -2.37,3.652 -3.72,5.199 l -1.69,1.293 -0.7,2.199 c -1.18,1.84 -2.44,3.07 -2.17,6.059 0.21,1.64 0.03,1.339 0.89,2.441 1.11,1.828 3.24,3.809 5.6,5.449 l 1.48,0.41 c 1.7,0.969 4.54,4.981 7.47,4.59 2.11,-0.301 2.63,-1.719 3.59,-3.07 0.84,-1.168 1.48,-2.77 2.32,-3.942 0.98,-1.199 2.46,-1.859 3.59,-3.066 0.99,-1.043 1.83,-2.23 3.01,-2.992 1.05,-0.738 2.82,-1.442 4.56,-2.281 l 2.94,-0.387 c 0.4,-0.223 0.32,-0.813 1.84,-1.184 2.34,-0.597 5.93,-1.558 8.7,-1.168 4.33,0.309 11.36,5.879 11.24,14.512 -0.13,4.258 -3.15,7.25 -6.03,10.219 -2.89,2.949 -7.78,5.898 -12.01,8.437 -4.36,2.551 -9.74,6.012 -13.97,9.614 -1.28,1.089 -3.22,2.546 -4.84,4.289 l -0.78,1.621 -1.32,0.777 c -0.61,0.84 -0.84,2.25 -1.55,3.402 -0.7,1.161 -1.58,2.028 -2.4,3.34 -0.36,0.508 -2.02,4.071 -2.32,5.02 -0.18,0.781 -0.24,2.461 -0.5,3.687 -0.6,4.032 -0.33,10.203 1.09,15.453 1.09,3.789 2.15,5.321 4.14,8.36 2.12,3.051 2.83,4.008 5.66,5.898 2.04,1.391 5.01,3.262 7.99,4.223 4.03,1.269 8.49,1.558 13.02,2.297 l 0.99,-0.129 c 0.86,0.039 11.6,0.23 12.98,-2.211"
         style="fill:#231f20;fill-opacity:1;fill-rule:nonzero;stroke:none"
         id="path3377"
         inkscape:connector-curvature="0" /><path
         d="m 1427.82,314.148 c 0.42,-2.828 0.14,-2.847 0.24,-5.097 0,-2.992 0.63,-4.313 1.28,-6.09 l -0.53,-0.629 c 0.56,-5.82 11.29,-2.012 14.63,-0.781 1.26,0.508 2.8,0.879 3.35,1.211 l 0.52,1.078 1.39,0.512 c 1.77,1.73 4.86,5.187 5.08,6.558 0.56,3.031 -1.1,8.039 -2,9.059 -3.35,4.941 -12.62,3.14 -19.13,2.679 -1.13,-0.058 -1.29,0.391 -2.4,-0.117 l -2.4,-0.121 c -1.63,-1.582 -0.24,-7.07 -0.03,-8.262 z m 7.81,29.383 0.05,-1.062 0.99,0.043 c 5.71,-0.762 12.16,0.738 16.62,-0.684 l 2.48,-1.547 c 2.02,-0.64 4.3,-0.84 5.9,-1.66 l 1.49,-1.582 c 1.6,-0.98 3.94,-2.359 5.6,-4.367 l 1.11,-2.5 1.48,-1.434 c 0.79,-1.617 1.33,-4 1.85,-6.066 l 0.58,-3.133 c 0.19,-1.027 0.54,-2.539 0.72,-3.117 0.03,-0.75 -0.79,-1.391 -0.87,-2.602 -0.35,-1.66 0.86,-3.109 0.64,-4.629 l -0.89,-1.992 0.61,-1.019 c -0.2,-1.5 -0.96,-3.649 -1.3,-5.309 -0.76,-5 -0.48,-4.98 -3,-8.422 l -1.72,-2.64 c -1.47,-1.868 -3.41,-2.707 -3.71,-5.27 -0.61,-5.141 3.26,-8.867 4.52,-11.66 0.65,-1.758 0.89,-3.707 1.69,-5.617 l 1.11,-2.5 1.09,-2.063 c 0.65,-1.617 0.89,-3.84 1.69,-5.617 l 1.04,-1 c 1.33,-4.141 3.12,-9 5.05,-13.57 0.64,-1.621 1.53,-2.481 2.06,-4.551 l -0.4,-0.629 c 0.16,-0.434 1.58,-3.383 1.21,-4.594 -0.74,-2.136 -6.09,-3.136 -9,-4.488 -0.97,-0.352 -1.77,-1.441 -2.48,-1.621 l -9.16,-1.051 c -0.87,0.41 -1.87,3.512 -2.7,6.031 -0.67,2.071 -1.07,4.61 -1.73,6.68 -0.81,2.051 -2.03,3.793 -2.84,6.02 -0.68,2.203 -1.09,4.902 -1.74,6.679 -0.82,2.344 -2,3.34 -2.65,4.961 -0.64,1.621 -0.61,3.883 -1.3,6.25 -1.01,3.551 -2.28,6.34 -3.87,10.02 -0.79,1.769 -1.92,4.41 -2.21,4.551 -1.89,1.109 -10.31,-0.801 -11.1,-2.032 -1.05,-1.699 0.54,-5.386 0.99,-8.808 l 0.44,-0.43 -0.4,-0.469 c 0.37,-1.801 1,-2.972 1.19,-4.16 0.08,-1.641 0.46,-3.73 0.7,-5.672 0.41,-2.527 1.25,-5.347 1.31,-6.539 0.08,-1.801 -0.36,-4.531 -0.32,-5.269 0.42,-2.832 1.54,-5.332 2.02,-9.672 0.45,-3.59 1.01,-9.117 -0.04,-10.821 -1.58,-2.769 -13.31,-3.648 -17.87,-2.968 -4,0.699 -5.77,1.968 -6.55,6.449 -0.17,0.742 0.35,1.519 0.3,2.562 l -0.52,2.09 c -0.45,3.571 -1.2,7.438 -1.51,10.739 -0.46,3.73 -1.05,7.152 -1.5,10.718 -0.02,0.313 0.02,2.563 -0.23,4.653 -0.37,1.8 -1,3.257 -1.21,4.609 -0.19,1.191 0.44,2.559 0.24,4.059 -0.09,1.8 -1.01,3.261 -1.19,4.14 -0.28,2.699 -0.15,6 -0.42,8.692 -0.16,3.3 -1.16,6.41 -1.32,9.847 l 0.33,1.973 c -0.08,1.5 -0.5,4.488 -0.77,7.168 -1.37,10.762 -2.47,19.121 -3.07,31.402 -0.21,4.629 -0.56,8.989 0.11,9.77 1.59,2.168 12.76,2.711 19.84,3.058 3.68,0.18 6.25,-0.308 8.21,0.403 l 0.96,0.5 c -0.14,-0.024 2.06,1.289 3.37,0.769"
         style="fill:#231f20;fill-opacity:1;fill-rule:nonzero;stroke:none"
         id="path3379"
         inkscape:connector-curvature="0" /><path
         d="m 1551.88,326.941 c -0.94,-1.48 -2.25,-5.043 -2.67,-7.461 -0.3,-1.781 0.07,-3.851 0.1,-6.308 0.01,-1.231 -0.11,-1.891 -0.2,-3.301 l 0.24,-1.012 c -0.2,-2.679 0.91,-7.187 1.63,-10.73 1.28,-6.32 3.2,-11.109 4.82,-15.328 0.93,-2.563 1.4,-5.063 2,-6.313 0.77,-1.34 2.72,-2.707 4.14,-4.367 3.59,-3.91 3.87,-4.449 8.43,-5.801 1.41,-0.41 4.01,-1.468 4.87,-1.41 1.35,-0.129 3.23,0.488 4.82,0.57 1.99,0.192 3.68,-0.179 5.05,0.168 1.48,0.532 1.16,1.211 1.54,1.473 0.89,0.527 1.95,0.328 2.88,0.699 1.54,0.86 3.56,1.508 4.41,2.192 1.99,1.41 3.67,4.609 4.55,6.367 0.34,1.012 1.01,1.793 1.28,2.48 l 0.35,2.711 0.71,1.27 0.02,1.699 c 0.43,1.801 1.19,4 1.25,5.57 -0.08,3.832 -1.85,8.02 -2.69,12.61 l -0.07,2.601 -0.6,2.481 c -2.41,9.14 -6.06,18.597 -10.04,24.078 -1.99,2.762 -2.17,2.25 -4.83,3.601 -1.14,0.489 -2.15,1.641 -3.08,1.872 -0.67,0.296 -2.07,0.097 -3,0.339 -1.21,0.149 -2.25,0.84 -2.69,0.868 -3.11,0.16 -5.82,-1.278 -9.07,-2.239 -2.58,-0.8 -5.81,-1.289 -6.9,-2.172 -2.52,-2.168 -6.04,-5.058 -7.25,-7.207 z m 15.34,35.161 c 4.82,0.589 9.88,1.367 13.29,1.128 1.89,0 4.34,-0.468 6.24,-1.07 1.24,-0.308 3.04,-1.719 4.57,-2.582 0.8,-0.269 3.03,-0.488 3.9,-1.656 l 0.26,-1.024 c 1.22,-0.777 3.01,-1.578 4.16,-2.668 l 0.8,-0.902 1.88,-1.68 c 1.08,-0.82 1.12,-1.578 2.48,-3.57 l 1.08,-0.797 c 3.61,-6.371 7.94,-14.422 10.49,-21.82 1.78,-5.43 4.34,-12.832 5.79,-19.262 1.02,-5.308 1.58,-11.66 2.29,-17.519 0.42,-4.059 0.67,-8.008 0.51,-12.071 -0.16,-1.129 0,-2.949 -0.1,-3.73 l -1.01,-1.797 -0.45,-2.281 -0.46,-2.27 -0.85,-0.679 c -0.36,-2.09 -2.25,-6.27 -3.5,-8.282 l -1.23,-0.922 -1.61,-3.5 c -0.44,-0.558 -2.26,-1.476 -3.45,-2.539 -1.57,-1.32 -2.59,-2.5 -4.61,-3.757 -2.66,-1.614 -6.4,-2.372 -9.52,-3.911 -1.03,-0.57 -1.57,-1.332 -2.5,-1.703 -2.67,-0.976 -8.16,-2.949 -11.4,-2.828 l -1.21,0.781 c -3.17,-0.179 -7.31,-1.66 -10.55,-1.519 -0.86,-0.063 -2.03,0.558 -3.24,0.719 -2.59,0.449 -6.38,1.05 -8.98,2.109 -0.79,0.27 -1.39,0.898 -2.39,1.422 l -2.73,1.019 c -2.74,1.641 -5.52,4.649 -8.27,6.911 -1.11,0.957 -1.94,1.367 -2.54,2 -0.62,0.777 -0.94,2.089 -1.82,3.257 l -1.08,0.821 0.28,0.679 -0.53,0.332 c -2.74,4.571 -5.2,9.829 -7.5,15.59 -3.68,9.61 -6.9,23.16 -8.59,32.949 -0.33,1.93 -0.17,3.668 -0.41,5.758 0,0 -0.48,0.821 -0.49,2.051 -0.1,2.133 -0.37,5 -0.47,7.75 l 0.46,2.289 c 0.02,1.07 -0.85,2.274 -0.76,3.051 0.03,0.473 1.01,1.793 1.31,2.949 0.2,0.973 0.01,2.32 0.24,3.16 l 0.82,0.821 c 1.26,7.871 7.51,14.98 15.11,19.652 l 2.62,1.738 c 2.09,0.973 5.26,1.153 7.86,2.403 l 1.13,1.367 c 2.77,1.152 9.32,2.929 14.68,3.633"
         style="fill:#231f20;fill-opacity:1;fill-rule:nonzero;stroke:none"
         id="path3381"
         inkscape:connector-curvature="0" /><path
         d="m 1660.8,395.828 c 1.73,0.332 3.65,0.902 4.03,0.762 1.93,-1.07 3.11,-7.5 4.4,-10.551 3.42,-8.18 8.27,-18.34 10.46,-22.937 1.42,-2.973 3.74,-6.204 5.8,-9.872 5.42,-10.39 13.03,-25.718 19.64,-30.039 l 1.35,-0.519 1.03,-1.184 c 1.34,-0.519 6.85,-0.886 8.78,-0.308 3.19,0.859 4.98,2.379 6.38,4.711 2.1,3.16 2.22,6.211 1.75,11.129 -0.4,4.468 -4.98,14.421 -7.69,20.781 -5.17,11.84 -9.44,22.758 -16.01,33.597 l -0.7,0.153 0.25,0.801 c -1.75,3.32 -2.77,5.16 -4.71,8.558 -1.74,3.32 -4.19,6.809 -3.75,7.871 0.58,1.758 8.64,4.59 10.62,5.039 l 1.28,-0.39 c 0.97,-0.039 2.43,0.84 3.71,1.109 1.8,0.512 5.24,2.172 5.44,2.09 0.77,-0.289 6.25,-8.828 7.15,-10.391 2.38,-4.359 4.97,-9.449 6.38,-12.418 1.04,-1.84 1.49,-4.121 2.46,-6.148 2.19,-4.281 5.23,-10.652 7.36,-15.453 0.52,-1.078 1.47,-1.778 1.67,-2.52 l 0.33,-2.679 c 0.91,-2.891 3.23,-6.442 4.72,-9.879 0.77,-1.95 1.03,-4.161 1.75,-5.981 0.39,-1.148 1.22,-2.238 1.55,-3.262 0.19,-1.07 -0.13,-1.718 0.19,-2.726 l 0.58,-0.223 0.72,-3.808 c 0.14,-1.602 1.23,-4.571 1.82,-7.129 0.33,-1.66 0.27,-3.512 0.41,-5.453 0.39,-3.469 1.37,-5.5 0.8,-8.258 l -0.76,-2.031 c -0.19,-1.911 -0.19,-3.571 -0.44,-4.688 -0.88,-3.41 -3.56,-7.344 -5.6,-10.641 -0.94,-1.621 -2.67,-3.589 -4.39,-5.589 -1.54,-1.723 -4.98,-4.043 -8.57,-5.743 -2.94,-1.41 -6.9,-2.949 -9.85,-3.027 -2.11,-0.172 -3.91,-0.043 -5.96,0 -3.83,0.156 -9.28,1.719 -13.2,4.008 l -1.35,0.519 c -2.37,1.371 -4.49,2.86 -7.06,4.61 -3.14,2 -6.62,6 -10.03,9.543 -0.7,0.816 -1.99,1.539 -2.82,2.629 -1.48,1.8 -2.52,3.968 -3.8,5.687 -1.1,1.641 -2.13,3.141 -3.54,5.113 -1.68,2.539 -3.93,5.61 -6.13,9.547 -2.57,4.774 -4.65,10.102 -7.35,15.453 -2.32,4.547 -5.16,8.848 -7.29,12.989 -2.51,5.289 -5.82,14.199 -7.55,18.179 -0.91,2.231 -2.78,3.832 -3.29,5.922 -0.72,2.821 -0.27,2.848 1,4.481 0.83,0.867 3.46,1.968 5.57,3.136 3.06,1.782 8.49,4.532 12.46,5.43"
         style="fill:#231f20;fill-opacity:1;fill-rule:nonzero;stroke:none"
         id="path3383"
         inkscape:connector-curvature="0" /><path
         d="m 1785.39,467 c 5.11,1.621 12.23,8.93 18.46,11.898 1.67,0.84 4.02,1.211 4.8,0.84 2.75,-1.179 5.9,-7.758 6.54,-9.136 0.5,-0.942 0.88,-2.704 1.56,-4.614 0.33,-1.429 1.69,-4.316 1.44,-4.687 -0.95,-2.352 -11.18,-7.25 -14.09,-9.512 -1.27,-0.898 -3.62,-2.949 -3.65,-3.168 -0.75,-2.359 3.43,-6.012 5.3,-8.383 0.81,-0.886 1.31,-1.828 2.09,-2.929 5.44,-7.36 11.02,-15.168 17.22,-23.098 2.82,-3.711 5.89,-7.031 8.92,-10.781 6.87,-9.121 13,-17.461 21.03,-27.95 2.13,-2.742 4.44,-4.75 4.39,-5.16 l -1.35,-2.261 c -3.16,-3.36 -9.61,-7.231 -13.94,-9.95 -0.8,-0.578 -1.76,-1.437 -2.76,-1.968 l -2.57,-0.539 c -0.7,0.226 -4.77,6.168 -6.63,8.527 -6.49,8.109 -13.53,18.93 -20.54,27.75 -0.78,1.101 -4.44,4.75 -5.96,6.633 -3.37,4.226 -11.66,15.816 -16.14,22.57 -0.5,0.938 -5.89,10.918 -8.12,11.367 -2.03,0.391 -6.28,-4.859 -8.03,-6.289 -1.41,-1.191 -4.04,-2.89 -6.34,-4.531 -2.1,-1.68 -4.08,-4.02 -5.53,-3.938 -0.52,0 -6.4,4.821 -7.28,6.047 -0.61,0.84 -1.96,3.203 -4.28,5.981 -1.34,1.621 -3.74,3.769 -3.92,4.761 -0.74,3.711 9.09,9.442 14.3,13.34 7.43,5.668 13.45,10.16 17.59,13.852 0.57,0.406 4.98,4.469 7.49,5.328"
         style="fill:#231f20;fill-opacity:1;fill-rule:nonzero;stroke:none"
         id="path3385"
         inkscape:connector-curvature="0" /><path
         d="m 1878.64,546.359 c 1.03,-0.039 2.32,-2.968 3.25,-3.32 l 1.03,0.371 c 0.42,-0.43 2.66,-4.32 4.02,-5.512 1.68,-1.289 6.21,-6.519 6.22,-6.929 0.12,-1.137 -1.47,-3.969 -2.67,-5.571 -3.22,-4.199 -9.71,-9.097 -13.63,-14 l -1,-1 0.73,-0.738 -4.23,-4.789 c 0.02,-1.031 3.3,-5.371 4.14,-6.23 1.26,-1.481 4.42,-4.7 6.07,-4.762 2.27,-0.078 7.19,6.012 10.13,8.473 0.81,0.589 1.83,1.367 3.04,2.367 1.12,0.679 2.13,1.66 3.25,2.34 2.64,1.972 5.78,4.632 8.71,2.05 l 1.49,-2.129 2.51,-1.949 c 1.05,-0.859 3.67,-3.32 5.36,-5.453 l 2.97,-4.238 c -0.1,-0.289 -1.41,-1.391 -2.83,-2.77 -3.23,-3.379 -7.67,-7.738 -11.69,-12.332 -1.22,-1.379 -3.03,-3.379 -3.41,-4.816 -1.16,-4.063 4.18,-8.09 7.65,-12.012 l 1.8,-2.441 c 3.98,-3.66 5.12,-3.598 8.85,0.679 0.9,1.114 1.29,2.133 2.81,3.403 1.21,1.187 3.05,1.949 5.08,3.73 2.64,2.168 4.63,5.168 6.95,7.457 2.53,2.481 5.46,5.16 7.32,5.082 0.61,-0.019 1.25,-0.879 2.19,-1.429 2.72,-1.95 3.27,-4.141 5.81,-7.321 1.91,-2.539 3.69,-4.16 5.06,-5.961 1.37,-1.597 3.05,-2.89 4.01,-4.687 l -0.29,-1.113 c 0.12,-0.528 1.79,-1.821 1.4,-2.829 l -3.14,-3.089 -0.73,0.757 c -1.02,-0.386 -3.85,-3.359 -5.47,-4.738 -5.47,-4.32 -11.5,-11.719 -18.49,-17.328 l -1.42,-1.383 -0.63,0.641 c -0.11,0.101 -4.87,-3.942 -6.28,-5.328 -2.63,-2.582 -4.92,-6.313 -6.56,-6.453 0,0 -4.59,2.64 -6.17,4.05 -1.36,1.379 -1.71,3.161 -3.28,4.762 -0.63,0.84 -2.21,1.84 -3.14,2.578 -6.51,5.61 -14.09,14.34 -22.48,22.071 -5.46,5.16 -10.51,10.289 -15.57,15.839 -5.48,6.172 -11.76,11.153 -15.45,15.723 -1.27,1.699 -1.82,3.27 -2.98,4.438 -4.64,5.332 -9.6,6.332 -6.92,11.89 0.39,0.82 1.62,1.172 2.12,2.09 l -0.44,1.039 c 1.49,2.52 6.78,6.441 7.33,9.313 0.46,2.757 6.25,7.168 8.24,10.386 l 1.39,2.641 c 3.01,4.199 8.58,9.043 12.81,13.422 0,0 4.23,4.98 5.16,5.058"
         style="fill:#231f20;fill-opacity:1;fill-rule:nonzero;stroke:none"
         id="path3387"
         inkscape:connector-curvature="0" /><path
         d="m 1647.82,2410.22 c 0,-131.16 -106.33,-237.49 -237.48,-237.49 -131.16,0 -237.49,106.33 -237.49,237.49 0,131.17 106.33,237.48 237.49,237.48 131.15,0 237.48,-106.31 237.48,-237.48"
         style="fill:#100f0d;fill-opacity:1;fill-rule:evenodd;stroke:none"
         id="path3389"
         inkscape:connector-curvature="0" /><path
         d="m 1306.76,2413.46 56.77,53.44 0,0 46.81,44.05 46.8,-44.05 56.76,-53.44 19.95,21.18 -56.77,53.44 -66.74,62.82 -66.75,-62.82 -56.77,-53.44 19.95,-21.18"
         style="fill:#ffffff;fill-opacity:1;fill-rule:nonzero;stroke:none"
         id="path3391"
         inkscape:connector-curvature="0" /><path
         d="m 1395.06,2289.52 30.5625,0 0,241.406 -30.5625,0 0,-241.406 z"
         style="fill:#ffffff;fill-opacity:1;fill-rule:nonzero;stroke:none"
         id="path3393"
         inkscape:connector-curvature="0" /><path
         d="m 750.918,1528.56 c 6.121,-8.86 12.691,-17.68 19.812,-26.39 140.301,35.92 357.75,63.58 643.86,63.58 286.59,0 504.28,-27.76 644.55,-63.77 6.83,8.54 13.36,17.35 19.51,26.48 -167.71,44.34 -420.32,67.53 -664.06,67.53 -243.55,0 -495.969,-23.15 -663.672,-67.43"
         style="fill:#100f0d;fill-opacity:1;fill-rule:nonzero;stroke:none"
         id="path3395"
         inkscape:connector-curvature="0" /><path
         d="m 585.652,1560.42 0,264.43 c 0,66.54 295.196,162.81 828.938,162.81 533.75,0 828.94,-96.27 828.94,-162.81 l 0,-264.43 c 10.15,-3.61 20.24,-7.37 30.24,-11.33 l 0,275.76 c 0,125.38 -442.67,193.04 -859.18,193.04 -416.508,0 -859.172,-67.66 -859.172,-193.04 l 0,-275.75 c 10,3.95 20.086,7.71 30.234,11.32"
         style="fill:#100f0d;fill-opacity:1;fill-rule:nonzero;stroke:none"
         id="path3397"
         inkscape:connector-curvature="0" /><path
         d="m 2235.85,871.609 c -64.89,-394.8 -408.37,-697.027 -821.26,-697.027 -412.86,0 -756.32,302.188 -821.242,696.949 -10,-0.082 -20.137,-0.293 -30.578,-0.742 65.527,-411.16 422.492,-726.437 851.82,-726.437 429.34,0 786.34,315.308 851.83,726.5 -10.44,0.449 -20.57,0.66 -30.57,0.757"
         style="fill:#100f0d;fill-opacity:1;fill-rule:nonzero;stroke:none"
         id="path3399"
         inkscape:connector-curvature="0" /><path
         d="m 771.785,1636.47 -32.187,-8.45 -79.446,167.3 29.68,7.79 54.656,-125.15 -13.925,135.87 28.164,7.39 13.058,-184.75"
         style="fill:#231f20;fill-opacity:1;fill-rule:nonzero;stroke:none"
         id="path3401"
         inkscape:connector-curvature="0" /><path
         d="m 917.391,1665.33 -75.528,-13.28 -31.515,179.24 29.707,5.21 26.828,-152.59 45.828,8.05 4.68,-26.63"
         style="fill:#231f20;fill-opacity:1;fill-rule:nonzero;stroke:none"
         id="path3403"
         inkscape:connector-curvature="0" /><path
         d="m 956.773,1670.83 -21.894,180.72 79.261,9.61 3.19,-26.34 -49.314,-5.97 6.004,-49.57 41.31,5.01 3.19,-26.34 -41.305,-5 6.316,-52.16 50.089,6.07 3.18,-26.33 -80.027,-9.7"
         style="fill:#231f20;fill-opacity:1;fill-rule:nonzero;stroke:none"
         id="path3405"
         inkscape:connector-curvature="0" /><path
         d="m 1081.99,1684.85 -14.2,181.48 79.59,6.23 2.07,-26.45 -49.52,-3.88 3.9,-49.77 41.48,3.24 2.07,-26.43 -41.48,-3.25 4.1,-52.37 50.29,3.94 2.07,-26.45 -80.37,-6.29"
         style="fill:#231f20;fill-opacity:1;fill-rule:nonzero;stroke:none"
         id="path3407"
         inkscape:connector-curvature="0" /><path
         d="m 1234.1,1793.58 15.85,0.65 c 9.87,0.4 16.48,4.3 15.96,17.3 l -0.96,23.65 c -0.53,13 -7.43,16.35 -17.31,15.95 l -15.86,-0.64 2.32,-56.91 z m 42.19,-96.94 -26.07,71.57 -15.08,-0.61 2.94,-72.5 -30.14,-1.22 -7.37,181.89 47.03,1.91 c 27.55,1.12 46.19,-9.06 47.3,-36.61 l 1.32,-32.48 c 0.7,-17.41 -6.13,-28.62 -18.38,-34.58 l 29.11,-76.12 -30.66,-1.25"
         style="fill:#231f20;fill-opacity:1;fill-rule:nonzero;stroke:none"
         id="path3409"
         inkscape:connector-curvature="0" /><path
         d="m 1421.4,1725.53 -16.89,-0.07 -27.6,84.67 0.39,-111.28 -28.08,-0.1 -0.64,182 28.6,0.11 35.47,-105.7 34.99,105.94 29.64,0.11 0.65,-182.01 -29.12,-0.1 -0.4,111.28 -27.01,-84.85"
         style="fill:#231f20;fill-opacity:1;fill-rule:nonzero;stroke:none"
         id="path3411"
         inkscape:connector-curvature="0" /><path
         d="m 1620.61,1730.4 c -1.12,-28.06 -19.21,-37.75 -46.76,-36.65 l -1.03,0.04 c -27.55,1.1 -44.81,11.94 -43.68,40.26 l 5.81,145.53 30.15,-1.21 -5.63,-140.84 c -0.52,-12.99 5.05,-16.86 14.92,-17.26 9.88,-0.39 15.74,3.02 16.26,16.02 l 5.63,140.84 30.13,-1.2 -5.8,-145.53"
         style="fill:#231f20;fill-opacity:1;fill-rule:nonzero;stroke:none"
         id="path3413"
         inkscape:connector-curvature="0" /><path
         d="m 1670.27,1690.7 12.93,181.59 30.09,-2.15 -12.92,-181.58 -30.1,2.14"
         style="fill:#231f20;fill-opacity:1;fill-rule:nonzero;stroke:none"
         id="path3415"
         inkscape:connector-curvature="0" /><path
         d="m 1830.76,1676.24 -86.64,8.99 2.15,20.7 67.34,129.99 -50.17,5.21 2.58,24.83 81.73,-8.49 -2.15,-20.69 -67.35,-129.99 55.09,-5.73 -2.58,-24.82"
         style="fill:#231f20;fill-opacity:1;fill-rule:nonzero;stroke:none"
         id="path3417"
         inkscape:connector-curvature="0" /><path
         d="m 1872.38,1670.87 27.55,179.87 78.89,-12.08 -4.02,-26.21 -49.07,7.52 -7.56,-49.34 41.11,-6.29 -4.02,-26.22 -41.11,6.3 -7.95,-51.9 49.85,-7.64 -4.01,-26.21 -79.66,12.2"
         style="fill:#231f20;fill-opacity:1;fill-rule:nonzero;stroke:none"
         id="path3419"
         inkscape:connector-curvature="0" /><path
         d="m 1995.22,1651.03 41.45,177.2 29.36,-6.86 11.57,-118.31 25.64,109.61 26.84,-6.28 -41.45,-177.2 -27.84,6.51 -11.8,124.24 -26.93,-115.18 -26.84,6.27"
         style="fill:#231f20;fill-opacity:1;fill-rule:nonzero;stroke:none"
         id="path3421"
         inkscape:connector-curvature="0" /></g></g></svg>